<svg xmlns="http://www.w3.org/2000/svg" width="64" height="64" viewBox="0 0 64 64"><defs xmlns="http://www.w3.org/2000/svg"><linearGradient id="metal" x2="0" y2="1"><stop stop-color="#fff5d8" /><stop offset=".45" stop-color="#e5dfcb" /><stop offset="1" stop-color="#9cabc0" /></linearGradient><linearGradient id="gold" x2="0" y2="1"><stop stop-color="#fff0b0" /><stop offset=".5" stop-color="#d6ad60" /><stop offset="1" stop-color="#8e602d" /></linearGradient><linearGradient id="paper" x2="0" y2="1"><stop stop-color="#fff2d0" /><stop offset="1" stop-color="#d2b781" /></linearGradient></defs><g fill="url(#metal)" stroke="#765731" stroke-width="2" stroke-linejoin="round" stroke-linecap="round"><path d="M23 44C23 37 15 34 15 23A17 17 0 0 1 49 23C49 34 41 37 41 44Z" fill="url(#gold)"/><path d="M25 49H39M27 54H37M30 58H34" fill="none" stroke="url(#metal)" stroke-width="4"/><path d="M27 24q5-7 10 0M32 27V42" fill="none" stroke="#fff2c5" stroke-width="3"/><path d="M7 22H3M12 8 9 5M57 22H61M52 8 55 5" fill="none" stroke="#d6ad60" stroke-width="2.5"/></g></svg>
